<svg width="312" height="59" viewBox="0 0 312 59" fill="none" xmlns="http://www.w3.org/2000/svg">
<path d="M119.889 10.0811C119.889 5.06574 123.954 1 128.97 1H297.808C302.823 1 306.889 5.06574 306.889 10.0811V40.9189C306.889 45.9343 302.823 50 297.808 50H293.767C293.613 50.4125 293.778 51.5825 294.316 54.108C294.798 56.3725 295.147 58.2577 295.09 58.2979C294.816 58.4904 282.936 55.4225 274.011 50.8114C273.285 50.5739 272.574 50.3028 271.88 50H128.97C123.954 50 119.889 45.9343 119.889 40.9189V10.0811Z" fill="url(#paint0_linear_2187_8523)"/>
<path d="M129.338 28.9309C129.338 26.6679 129.707 24.7736 130.444 23.2479C131.181 21.6969 132.186 20.5273 133.457 19.739C134.729 18.9254 136.165 18.5185 137.767 18.5185C139.089 18.5185 140.259 18.8872 141.276 19.6246C142.293 20.362 143.094 21.4045 143.679 22.7521C144.264 24.0743 144.556 25.6381 144.556 27.4434L142.611 27.6341C142.611 26.5662 142.471 25.7017 142.191 25.0406C141.937 24.354 141.556 23.8455 141.047 23.5149C140.564 23.1844 139.979 23.0191 139.293 23.0191C138.072 23.0191 137.055 23.5022 136.241 24.4684C135.453 25.4347 135.059 26.8204 135.059 28.6258C135.059 29.8971 135.212 30.9523 135.517 31.7914C135.822 32.6305 136.254 33.2535 136.814 33.6603C137.373 34.0672 138.021 34.2706 138.759 34.2706C139.522 34.2706 140.297 34.0799 141.085 33.6985C141.874 33.3171 142.56 32.7704 143.145 32.0584V35.8343C142.382 36.9023 141.479 37.7795 140.437 38.466C139.394 39.1271 138.199 39.4577 136.852 39.4577C135.504 39.4577 134.258 39.0254 133.114 38.1609C131.97 37.2964 131.054 36.0759 130.368 34.4994C129.681 32.9229 129.338 31.0668 129.338 28.9309ZM143.297 39L142.573 35.1859V11.7295L148.294 10.9667V34.2324C148.294 34.7664 148.307 35.2495 148.332 35.6818C148.383 36.0886 148.459 36.5717 148.561 37.1311L148.866 39H143.297ZM152.617 29.3886C152.617 27.2019 153.037 25.2948 153.876 23.6675C154.715 22.0402 155.872 20.7815 157.347 19.8916C158.821 18.9762 160.512 18.5185 162.419 18.5185C164.25 18.5185 165.827 18.9254 167.149 19.739C168.496 20.5527 169.526 21.7096 170.238 23.2098C170.975 24.6846 171.344 26.4645 171.344 28.5495C171.344 28.9817 171.319 29.3886 171.268 29.77C171.242 30.1514 171.204 30.4565 171.153 30.6854H156.698V27.062H167.034L165.852 28.6258C165.852 26.6679 165.534 25.244 164.898 24.354C164.288 23.4387 163.424 22.981 162.305 22.981C161.517 22.981 160.805 23.1844 160.169 23.5912C159.559 23.998 159.076 24.6464 158.72 25.5364C158.364 26.4263 158.186 27.5833 158.186 29.0072C158.186 30.3548 158.427 31.4609 158.91 32.3254C159.393 33.1645 160.055 33.7875 160.894 34.1943C161.758 34.6011 162.763 34.8045 163.907 34.8045C164.67 34.8045 165.458 34.7028 166.271 34.4994C167.111 34.2706 167.848 33.9909 168.484 33.6603L170.047 37.9321C169.132 38.3389 168.102 38.6949 166.958 39C165.839 39.3051 164.606 39.4577 163.258 39.4577C161.021 39.4577 159.101 39.0381 157.499 38.199C155.923 37.36 154.715 36.1903 153.876 34.6901C153.037 33.1645 152.617 31.3973 152.617 29.3886ZM173.65 37.6651L175.595 33.1264C176.409 33.6095 177.337 34.029 178.379 34.385C179.422 34.7155 180.452 34.8808 181.469 34.8808C182.435 34.8808 183.096 34.7537 183.452 34.4994C183.808 34.2197 183.986 33.8892 183.986 33.5078C183.986 33.2535 183.897 33.0246 183.719 32.8212C183.566 32.6178 183.299 32.4271 182.918 32.2491C182.562 32.0711 182.079 31.8804 181.469 31.677C178.875 30.7871 177.057 29.8081 176.015 28.7402C174.972 27.6468 174.451 26.3373 174.451 24.8117C174.451 23.6421 174.769 22.5868 175.404 21.646C176.04 20.6798 176.968 19.917 178.189 19.3576C179.409 18.7982 180.884 18.5185 182.613 18.5185C183.859 18.5185 185.067 18.6711 186.236 18.9762C187.431 19.2813 188.499 19.6627 189.44 20.1204L187.571 24.5066C186.808 24.1252 185.944 23.7946 184.978 23.5149C184.011 23.2352 183.121 23.0954 182.308 23.0954C181.545 23.0954 180.973 23.2098 180.591 23.4387C180.21 23.6675 180.019 23.9726 180.019 24.354C180.019 24.6083 180.096 24.8371 180.248 25.0406C180.426 25.244 180.719 25.4474 181.125 25.6508C181.532 25.8542 182.104 26.0831 182.842 26.3373C184.545 26.9222 185.918 27.5451 186.961 28.2062C188.003 28.8419 188.754 29.5666 189.211 30.3802C189.694 31.1685 189.936 32.0966 189.936 33.1645C189.936 34.4104 189.567 35.5038 188.83 36.4446C188.118 37.3854 187.101 38.1228 185.779 38.6567C184.482 39.1907 182.943 39.4577 181.164 39.4577C179.689 39.4577 178.303 39.2924 177.006 38.9619C175.735 38.6059 174.616 38.1736 173.65 37.6651ZM194.068 39V18.9762H199.79V39H194.068ZM193.649 13.217C193.649 12.327 193.954 11.5642 194.564 10.9285C195.175 10.2674 195.963 9.9369 196.929 9.9369C197.895 9.9369 198.684 10.2674 199.294 10.9285C199.904 11.5642 200.209 12.327 200.209 13.217C200.209 14.1069 199.904 14.8825 199.294 15.5436C198.684 16.1792 197.895 16.4971 196.929 16.4971C195.963 16.4971 195.175 16.1792 194.564 15.5436C193.954 14.8825 193.649 14.1069 193.649 13.217ZM204.931 18.9762H210.5L211.224 22.981V39H205.503V23.7438C205.503 23.2098 205.478 22.7394 205.427 22.3326C205.402 21.9003 205.338 21.4045 205.236 20.8451L204.931 18.9762ZM210.652 26.4899V22.9047C211.44 21.5316 212.419 20.4637 213.589 19.7009C214.759 18.9126 216.03 18.5185 217.403 18.5185V24.1633C215.903 24.1633 214.644 24.3286 213.627 24.6592C212.635 24.9897 211.644 25.6 210.652 26.4899ZM219.698 29.3886C219.698 27.2019 220.118 25.2948 220.957 23.6675C221.796 22.0402 222.953 20.7815 224.428 19.8916C225.903 18.9762 227.593 18.5185 229.5 18.5185C231.331 18.5185 232.908 18.9254 234.23 19.739C235.578 20.5527 236.607 21.7096 237.319 23.2098C238.057 24.6846 238.425 26.4645 238.425 28.5495C238.425 28.9817 238.4 29.3886 238.349 29.77C238.324 30.1514 238.286 30.4565 238.235 30.6854H223.779V27.062H234.115L232.933 28.6258C232.933 26.6679 232.615 25.244 231.98 24.354C231.369 23.4387 230.505 22.981 229.386 22.981C228.598 22.981 227.886 23.1844 227.25 23.5912C226.64 23.998 226.157 24.6464 225.801 25.5364C225.445 26.4263 225.267 27.5833 225.267 29.0072C225.267 30.3548 225.508 31.4609 225.992 32.3254C226.475 33.1645 227.136 33.7875 227.975 34.1943C228.839 34.6011 229.844 34.8045 230.988 34.8045C231.751 34.8045 232.539 34.7028 233.353 34.4994C234.192 34.2706 234.929 33.9909 235.565 33.6603L237.129 37.9321C236.213 38.3389 235.183 38.6949 234.039 39C232.92 39.3051 231.687 39.4577 230.34 39.4577C228.102 39.4577 226.182 39.0381 224.58 38.199C223.004 37.36 221.796 36.1903 220.957 34.6901C220.118 33.1645 219.698 31.3973 219.698 29.3886ZM240.731 37.6651L242.676 33.1264C243.49 33.6095 244.418 34.029 245.461 34.385C246.503 34.7155 247.533 34.8808 248.55 34.8808C249.516 34.8808 250.177 34.7537 250.533 34.4994C250.889 34.2197 251.067 33.8892 251.067 33.5078C251.067 33.2535 250.978 33.0246 250.8 32.8212C250.648 32.6178 250.381 32.4271 249.999 32.2491C249.643 32.0711 249.16 31.8804 248.55 31.677C245.956 30.7871 244.138 29.8081 243.096 28.7402C242.053 27.6468 241.532 26.3373 241.532 24.8117C241.532 23.6421 241.85 22.5868 242.486 21.646C243.121 20.6798 244.049 19.917 245.27 19.3576C246.49 18.7982 247.965 18.5185 249.694 18.5185C250.94 18.5185 252.148 18.6711 253.317 18.9762C254.513 19.2813 255.58 19.6627 256.521 20.1204L254.652 24.5066C253.89 24.1252 253.025 23.7946 252.059 23.5149C251.093 23.2352 250.203 23.0954 249.389 23.0954C248.626 23.0954 248.054 23.2098 247.673 23.4387C247.291 23.6675 247.101 23.9726 247.101 24.354C247.101 24.6083 247.177 24.8371 247.329 25.0406C247.507 25.244 247.8 25.4474 248.207 25.6508C248.613 25.8542 249.186 26.0831 249.923 26.3373C251.627 26.9222 253 27.5451 254.042 28.2062C255.085 28.8419 255.835 29.5666 256.292 30.3802C256.776 31.1685 257.017 32.0966 257.017 33.1645C257.017 34.4104 256.648 35.5038 255.911 36.4446C255.199 37.3854 254.182 38.1228 252.86 38.6567C251.563 39.1907 250.025 39.4577 248.245 39.4577C246.77 39.4577 245.384 39.2924 244.087 38.9619C242.816 38.6059 241.697 38.1736 240.731 37.6651Z" fill="#EAEAEA"/>
<path fill-rule="evenodd" clip-rule="evenodd" d="M274.313 15.3335C273.207 15.5487 271.986 16.1064 270.966 16.862C269.924 17.633 268.738 19.1844 268.278 20.3778C267.766 21.7072 267.705 22.0516 267.701 23.6693C267.697 24.9422 267.721 25.2606 267.877 25.9535C268.551 28.9658 270.033 31.377 273.104 34.4576C275.113 36.4735 277.039 38.0571 279.49 39.7082C280.356 40.2916 282.114 41.4073 282.665 41.7236C282.789 41.7944 283.402 41.4342 285.367 40.1359C288.843 37.8396 292.07 35.0961 293.931 32.8554C294.144 32.5988 294.369 32.3362 294.43 32.2718C294.629 32.0616 295.344 31.0699 295.781 30.3983C296.72 28.9541 297.307 27.5654 297.638 26.0046C297.861 24.9515 297.919 22.9943 297.751 22.1508C297.383 20.2919 296.682 18.9497 295.41 17.669C294.318 16.569 293.062 15.8287 291.633 15.442C290.642 15.1738 289.158 15.189 288.108 15.4783C286.408 15.9466 284.86 16.9049 283.411 18.3871L282.778 19.0343L282.048 18.3085C280.584 16.8518 278.993 15.8874 277.324 15.4447C276.554 15.2407 275.071 15.1859 274.313 15.3335Z" fill="white"/>
<path d="M0.842186 37.6651L2.78735 33.1264C3.60102 33.6095 4.52911 34.029 5.57161 34.385C6.61412 34.7155 7.64392 34.8808 8.661 34.8808C9.62723 34.8808 10.2883 34.7537 10.6443 34.4994C11.0003 34.2197 11.1783 33.8892 11.1783 33.5078C11.1783 33.2535 11.0893 33.0246 10.9113 32.8212C10.7587 32.6178 10.4917 32.4271 10.1103 32.2491C9.75436 32.0711 9.27125 31.8804 8.661 31.677C6.06744 30.7871 4.24941 29.8081 3.2069 28.7402C2.16439 27.6468 1.64314 26.3373 1.64314 24.8117C1.64314 23.6421 1.96098 22.5868 2.59665 21.646C3.23233 20.6798 4.16041 19.917 5.38091 19.3576C6.60141 18.7982 8.07618 18.5185 9.80522 18.5185C11.0511 18.5185 12.2589 18.6711 13.4286 18.9762C14.6236 19.2813 15.6916 19.6627 16.6324 20.1204L14.7635 24.5066C14.0007 24.1252 13.1362 23.7946 12.1699 23.5149C11.2037 23.2352 10.3138 23.0954 9.50009 23.0954C8.73728 23.0954 8.16517 23.2098 7.78377 23.4387C7.40236 23.6675 7.21166 23.9726 7.21166 24.354C7.21166 24.6083 7.28794 24.8371 7.4405 25.0406C7.61849 25.244 7.9109 25.4474 8.31774 25.6508C8.72457 25.8542 9.29668 26.0831 10.0341 26.3373C11.7377 26.9222 13.1107 27.5451 14.1532 28.2062C15.1957 28.8419 15.9458 29.5666 16.4035 30.3802C16.8866 31.1685 17.1282 32.0966 17.1282 33.1645C17.1282 34.4104 16.7595 35.5038 16.0221 36.4446C15.3102 37.3854 14.2931 38.1228 12.9709 38.6567C11.6741 39.1907 10.1358 39.4577 8.35588 39.4577C6.88111 39.4577 5.49533 39.2924 4.19855 38.9619C2.9272 38.6059 1.80841 38.1736 0.842186 37.6651ZM19.8496 29.3886C19.8496 27.2019 20.2691 25.2948 21.1082 23.6675C21.9473 22.0402 23.1043 20.7815 24.579 19.8916C26.0538 18.9762 27.7447 18.5185 29.6517 18.5185C31.4825 18.5185 33.0589 18.9254 34.3811 19.739C35.7288 20.5527 36.7586 21.7096 37.4705 23.2098C38.2079 24.6846 38.5766 26.4645 38.5766 28.5495C38.5766 28.9817 38.5512 29.3886 38.5003 29.77C38.4749 30.1514 38.4368 30.4565 38.3859 30.6854H23.9306V27.062H34.2667L33.0844 28.6258C33.0844 26.6679 32.7665 25.244 32.1309 24.354C31.5206 23.4387 30.6561 22.981 29.5373 22.981C28.7491 22.981 28.0371 23.1844 27.4014 23.5912C26.7912 23.998 26.3081 24.6464 25.9521 25.5364C25.5961 26.4263 25.4181 27.5833 25.4181 29.0072C25.4181 30.3548 25.6597 31.4609 26.1428 32.3254C26.6259 33.1645 27.287 33.7875 28.1261 34.1943C28.9906 34.6011 29.995 34.8045 31.1392 34.8045C31.902 34.8045 32.6902 34.7028 33.5039 34.4994C34.343 34.2706 35.0804 33.9909 35.7161 33.6603L37.2798 37.9321C36.3645 38.3389 35.3347 38.6949 34.1904 39C33.0717 39.3051 31.8384 39.4577 30.4908 39.4577C28.2532 39.4577 26.3335 39.0381 24.7316 38.199C23.1551 37.36 21.9473 36.1903 21.1082 34.6901C20.2691 33.1645 19.8496 31.3973 19.8496 29.3886ZM41.3782 29.3886C41.3782 27.1764 41.8231 25.2567 42.7131 23.6294C43.603 22.002 44.8235 20.7434 46.3746 19.8534C47.951 18.9635 49.7564 18.5185 51.7905 18.5185C52.9602 18.5185 54.0408 18.6711 55.0325 18.9762C56.0241 19.2813 56.9395 19.6627 57.7786 20.1204L55.719 24.6592C55.2359 24.3032 54.6638 24.0235 54.0027 23.8201C53.3416 23.5912 52.655 23.4768 51.9431 23.4768C51.0531 23.4768 50.2395 23.6802 49.5021 24.087C48.7901 24.4939 48.218 25.1168 47.7858 25.9559C47.3789 26.795 47.1755 27.8757 47.1755 29.1979C47.1755 30.3421 47.3916 31.3083 47.8239 32.0966C48.2562 32.8594 48.841 33.4442 49.5784 33.851C50.3412 34.2324 51.2057 34.4231 52.1719 34.4231C52.833 34.4231 53.4941 34.3214 54.1552 34.118C54.8163 33.9146 55.3884 33.6476 55.8716 33.3171L57.9312 37.8558C57.0921 38.3135 56.1131 38.6949 54.9943 39C53.901 39.3051 52.6805 39.4577 51.3328 39.4577C49.3495 39.4577 47.6078 39.0509 46.1076 38.2372C44.6074 37.3981 43.4377 36.2285 42.5986 34.7283C41.785 33.2026 41.3782 31.4227 41.3782 29.3886ZM61.1758 18.9762H66.7443L67.469 22.981V39H61.7479V23.7438C61.7479 23.2098 61.7225 22.7394 61.6716 22.3326C61.6462 21.9003 61.5826 21.4045 61.4809 20.8451L61.1758 18.9762ZM66.8969 26.4899V22.9047C67.6851 21.5316 68.664 20.4637 69.8337 19.7009C71.0033 18.9126 72.2747 18.5185 73.6477 18.5185V24.1633C72.1475 24.1633 70.8889 24.3286 69.8718 24.6592C68.8802 24.9897 67.8885 25.6 66.8969 26.4899ZM75.943 29.3886C75.943 27.2019 76.3626 25.2948 77.2017 23.6675C78.0408 22.0402 79.1977 20.7815 80.6725 19.8916C82.1472 18.9762 83.8381 18.5185 85.7452 18.5185C87.5759 18.5185 89.1524 18.9254 90.4746 19.739C91.8222 20.5527 92.852 21.7096 93.564 23.2098C94.3014 24.6846 94.67 26.4645 94.67 28.5495C94.67 28.9817 94.6446 29.3886 94.5938 29.77C94.5683 30.1514 94.5302 30.4565 94.4793 30.6854H80.0241V27.062H90.3602L89.1778 28.6258C89.1778 26.6679 88.86 25.244 88.2243 24.354C87.614 23.4387 86.7495 22.981 85.6307 22.981C84.8425 22.981 84.1305 23.1844 83.4949 23.5912C82.8846 23.998 82.4015 24.6464 82.0455 25.5364C81.6895 26.4263 81.5116 27.5833 81.5116 29.0072C81.5116 30.3548 81.7531 31.4609 82.2362 32.3254C82.7193 33.1645 83.3804 33.7875 84.2195 34.1943C85.0841 34.6011 86.0884 34.8045 87.2326 34.8045C87.9954 34.8045 88.7837 34.7028 89.5974 34.4994C90.4364 34.2706 91.1738 33.9909 91.8095 33.6603L93.3733 37.9321C92.4579 38.3389 91.4281 38.6949 90.2839 39C89.1651 39.3051 87.9319 39.4577 86.5842 39.4577C84.3467 39.4577 82.4269 39.0381 80.825 38.199C79.2485 37.36 78.0408 36.1903 77.2017 34.6901C76.3626 33.1645 75.943 31.3973 75.943 29.3886ZM96.5944 23.3624V18.9762H111.05V23.3624H96.5944ZM100.027 32.0584V14.5519L105.748 13.7891V31.3337C105.748 32.4271 105.964 33.1899 106.396 33.6222C106.829 34.0544 107.464 34.2706 108.304 34.2706C108.659 34.2706 109.041 34.2324 109.448 34.1561C109.88 34.0544 110.312 33.9273 110.745 33.7747L111.355 38.6949C110.719 38.9237 110.033 39.1017 109.295 39.2288C108.558 39.3814 107.82 39.4577 107.083 39.4577C105.634 39.4577 104.375 39.1907 103.307 38.6567C102.265 38.0973 101.451 37.271 100.866 36.1776C100.307 35.0842 100.027 33.7112 100.027 32.0584Z" fill="#EAEAEA"/>
<defs>
<linearGradient id="paint0_linear_2187_8523" x1="213.389" y1="58.3065" x2="213.389" y2="1" gradientUnits="userSpaceOnUse">
<stop stop-color="#F50057"/>
<stop offset="1" stop-color="#D62A5E"/>
</linearGradient>
</defs>
</svg>
